<svg width="111" height="19" viewBox="0 0 111 19" fill="none" xmlns="http://www.w3.org/2000/svg">
<g clip-path="url(#clip0_62822_116)">
<path d="M106.106 7.974H101.145H96.185C95.1703 7.974 94.3447 7.17185 94.3447 6.18586V4.52094C94.3447 3.53533 95.1703 2.73287 96.185 2.73287H108.649C109.425 2.73287 110.055 2.1213 110.055 1.36656C110.055 0.611835 109.425 0.000244141 108.649 0.000244141H96.185C93.6195 0.000244141 91.5322 2.02832 91.5322 4.52094V6.18586C91.5322 8.67878 93.6195 10.7069 96.185 10.7069H101.145H106.106C107.12 10.7069 107.946 11.509 107.946 12.4946V14.1596C107.946 15.1455 107.12 15.9477 106.106 15.9477H92.9384C92.1616 15.9477 91.5322 16.5595 91.5322 17.3139C91.5322 18.0687 92.1616 18.6806 92.9384 18.6806H106.106C108.671 18.6806 110.758 16.6525 110.758 14.1596V12.4946C110.758 10.0019 108.671 7.974 106.106 7.974Z" fill="#121113"/>
<path d="M85.0626 14.1596C85.0626 15.1455 84.237 15.9476 83.2222 15.9476H73.3017C72.287 15.9476 71.4614 15.1455 71.4614 14.1596V4.52094C71.4614 3.53497 72.287 2.73287 73.3017 2.73287H83.2222C84.237 2.73287 85.0626 3.53497 85.0626 4.52094V14.1596ZM83.2222 0.000244141H73.3017C70.7362 0.000244141 68.6489 2.0283 68.6489 4.52094V14.1596C68.6489 16.6526 70.7362 18.6802 73.3017 18.6802H83.2222C85.788 18.6802 87.8754 16.6526 87.8754 14.1596V4.52094C87.8754 2.0283 85.788 0.000244141 83.2222 0.000244141Z" fill="#121113"/>
<path d="M62.1795 14.1596C62.1795 15.1455 61.3539 15.9476 60.3392 15.9476H48.5783V10.7065H60.3392C61.3539 10.7065 62.1795 11.5086 62.1795 12.4946V14.1596ZM62.1795 4.52094V6.18585C62.1795 7.17179 61.3539 7.97393 60.3392 7.97393H48.5783V2.73287H60.3392C61.3539 2.73287 62.1795 3.53497 62.1795 4.52094ZM60.3392 0.000244141H47.172C46.9293 0.000244141 46.7011 0.0598896 46.5019 0.165157C46.422 0.207261 46.3469 0.256385 46.2775 0.312168C46.2081 0.367952 46.1443 0.429708 46.0869 0.497437C45.8861 0.733564 45.7659 1.03637 45.7659 1.36656V17.314C45.7659 17.8329 46.0635 18.2842 46.5019 18.5157C46.7011 18.6206 46.9293 18.6802 47.172 18.6802H60.3392C62.9051 18.6802 64.9923 16.6526 64.9923 14.1596V12.4946C64.9923 11.2686 64.4864 10.1554 63.6677 9.3403C64.4864 8.52522 64.9923 7.41184 64.9923 6.18585V4.52094C64.9923 2.0283 62.9051 0.000244141 60.3392 0.000244141Z" fill="#121113"/>
<path d="M40.7029 0.00012207C39.9262 0.00012207 39.2968 0.612057 39.2968 1.36644V14.1594C39.2968 15.1453 38.4712 15.9475 37.4565 15.9475H27.536C26.5212 15.9475 25.6956 15.1453 25.6956 14.1594V1.36644C25.6956 0.612057 25.0662 0.00012207 24.2893 0.00012207C23.5125 0.00012207 22.8828 0.612057 22.8828 1.36644V14.1594C22.8828 16.6524 24.9701 18.6805 27.536 18.6805H37.4565C40.0219 18.6805 42.1093 16.6524 42.1093 14.1594V1.36644C42.1093 0.612057 41.4799 0.00012207 40.7029 0.00012207Z" fill="#121113"/>
<path d="M4.6528 2.73299H17.82C18.5967 2.73299 19.2261 2.1214 19.2261 1.36667C19.2261 0.611934 18.5967 0 17.82 0H4.6528C2.08741 0 0 2.02808 0 4.52106V14.1596C0 16.6522 2.08741 18.6804 4.6528 18.6804H17.82C18.5967 18.6804 19.2261 18.0688 19.2261 17.314C19.2261 16.5593 18.5967 15.9478 17.82 15.9478H4.6528C3.63806 15.9478 2.81246 15.1456 2.81246 14.1596V4.52106C2.81246 3.53509 3.63806 2.73299 4.6528 2.73299Z" fill="#121113"/>
</g>
<defs>
<clipPath id="clip0_62822_116">
<rect width="111" height="19" fill="white"/>
</clipPath>
</defs>
</svg>
